<svg width="35" height="23" viewBox="0 0 35 23" fill="none" xmlns="http://www.w3.org/2000/svg">
<path d="M32.3553 7.41962L20.909 0.202352C20.2512 -0.2139 19.4029 0.0322706 19.0218 0.755116C18.6406 1.47572 18.866 2.39998 19.5279 2.81623L30.6832 9.84999H1.3811C0.618832 9.84999 0 10.5258 0 11.3583C0 12.1908 0.618832 12.8667 1.3811 12.8667H30.6832L19.5279 19.9005C18.866 20.3167 18.6406 21.2387 19.0218 21.9616C19.2779 22.445 19.7431 22.718 20.2185 22.718C20.4541 22.718 20.6897 22.6531 20.909 22.5143L32.3553 15.2971C33.6585 14.4758 34.4371 13.0032 34.4371 11.3583C34.4371 9.71348 33.6605 8.24093 32.3553 7.41962Z" fill="#FBFAEE"/>
</svg>
