<svg width="24" height="24" viewBox="0 0 24 24" fill="none" xmlns="http://www.w3.org/2000/svg">
<path d="M10.7431 18.299C10.5018 18.299 10.2995 18.2182 10.1364 18.0565C9.97319 17.895 9.89161 17.6931 9.89161 17.4508C9.89161 17.2086 9.97344 17.0055 10.1371 16.8415C10.3008 16.6777 10.5028 16.5958 10.7431 16.5958H13.2611C13.5006 16.5958 13.7014 16.6792 13.8636 16.846C14.0256 17.0128 14.1066 17.2174 14.1066 17.4598C14.1066 17.7019 14.0248 17.9023 13.8611 18.061C13.6974 18.2197 13.4954 18.299 13.2551 18.299H10.7431ZM6.71336 12.8458C6.47153 12.8458 6.27011 12.7649 6.10911 12.6033C5.94811 12.4418 5.86761 12.2397 5.86761 11.997C5.86761 11.7545 5.94811 11.5524 6.10911 11.3908C6.27011 11.2291 6.47153 11.1483 6.71336 11.1483H17.2791C17.5203 11.1483 17.7225 11.2306 17.8859 11.3953C18.049 11.5598 18.1306 11.7633 18.1306 12.0058C18.1306 12.2484 18.049 12.4491 17.8859 12.6078C17.7225 12.7664 17.5203 12.8458 17.2791 12.8458H6.71336ZM3.69536 7.39826C3.45353 7.39826 3.25211 7.31634 3.09111 7.15251C2.93011 6.98867 2.84961 6.78559 2.84961 6.54326C2.84961 6.30109 2.93144 6.09917 3.09511 5.93751C3.25878 5.77584 3.46086 5.69501 3.70136 5.69501H20.3029C20.5442 5.69501 20.7464 5.77734 20.9096 5.94201C21.0729 6.10651 21.1546 6.30984 21.1546 6.55201C21.1546 6.79434 21.0716 6.99601 20.9056 7.15701C20.7398 7.31784 20.5369 7.39826 20.2969 7.39826H3.69536Z" fill="black"/>
</svg>
