<svg width="32" height="32" viewBox="0 0 32 32" fill="none" xmlns="http://www.w3.org/2000/svg">
<path d="M29.0963 9.90801C28.9737 9.73077 28.8099 9.5859 28.619 9.48582C28.4282 9.38573 28.2159 9.33341 28.0003 9.33334H9.77766L8.23899 5.64001C8.03724 5.15363 7.69562 4.73812 7.25743 4.44615C6.81923 4.15418 6.30421 3.99891 5.77766 4.00001H2.66699V6.66667H5.77766L12.103 21.8467C12.2043 22.0895 12.3752 22.297 12.5942 22.4429C12.8132 22.5888 13.0705 22.6667 13.3337 22.6667H24.0003C24.5563 22.6667 25.0537 22.3213 25.2497 21.8027L29.2497 11.136C29.3253 10.9342 29.3508 10.717 29.3241 10.5031C29.2974 10.2893 29.2192 10.0851 29.0963 9.90801ZM23.0763 20H14.223L10.8897 12H26.0763L23.0763 20Z" fill="#141413"/>
<path d="M14.0003 28C15.1049 28 16.0003 27.1046 16.0003 26C16.0003 24.8954 15.1049 24 14.0003 24C12.8958 24 12.0003 24.8954 12.0003 26C12.0003 27.1046 12.8958 28 14.0003 28Z" fill="#141413"/>
<path d="M23.3337 28C24.4382 28 25.3337 27.1046 25.3337 26C25.3337 24.8954 24.4382 24 23.3337 24C22.2291 24 21.3337 24.8954 21.3337 26C21.3337 27.1046 22.2291 28 23.3337 28Z" fill="#141413"/>
</svg>
