<svg width="33" height="17" viewBox="0 0 33 17" fill="none" xmlns="http://www.w3.org/2000/svg">
<path d="M30.3471 5.44555L19.6113 0.148514C18.9943 -0.15699 18.1987 0.0236847 17.8412 0.55421C17.4837 1.08309 17.6951 1.76144 18.3159 2.06695L28.7788 7.2293H1.29538C0.580424 7.2293 0 7.72533 0 8.33634C0 8.94735 0.580424 9.44338 1.29538 9.44338H28.7788L18.3159 14.6057C17.6951 14.9112 17.4837 15.5879 17.8412 16.1185C18.0814 16.4733 18.5177 16.6736 18.9636 16.6736C19.1846 16.6736 19.4056 16.626 19.6113 16.5242L30.3471 11.2271C31.5695 10.6243 32.2998 9.54357 32.2998 8.33634C32.2998 7.12911 31.5714 6.04835 30.3471 5.44555Z" fill="#141413"/>
</svg>
