<svg width="24" height="24" viewBox="0 0 24 24" fill="none" xmlns="http://www.w3.org/2000/svg">
<path d="M11.1474 12.852H5.70136C5.46086 12.852 5.25878 12.7696 5.09511 12.605C4.93144 12.4405 4.84961 12.2374 4.84961 11.9957C4.84961 11.7542 4.93144 11.5526 5.09511 11.391C5.25878 11.2293 5.46086 11.1485 5.70136 11.1485H11.1474V5.70248C11.1474 5.46248 11.2297 5.25956 11.3944 5.09373C11.5589 4.92773 11.7619 4.84473 12.0036 4.84473C12.2451 4.84473 12.4467 4.92773 12.6084 5.09373C12.77 5.25956 12.8509 5.46248 12.8509 5.70248V11.1485H18.2969C18.5369 11.1485 18.7398 11.2308 18.9056 11.3955C19.0716 11.56 19.1546 11.7631 19.1546 12.0047C19.1546 12.2462 19.0716 12.4478 18.9056 12.6095C18.7398 12.7711 18.5369 12.852 18.2969 12.852H12.8509V18.298C12.8509 18.5385 12.7685 18.7406 12.6039 18.9042C12.4394 19.0679 12.2363 19.1497 11.9946 19.1497C11.7531 19.1497 11.5515 19.0679 11.3899 18.9042C11.2282 18.7406 11.1474 18.5385 11.1474 18.298V12.852Z" fill="#FBFAEE"/>
</svg>
