<svg width="32" height="32" viewBox="0 0 32 32" fill="none" xmlns="http://www.w3.org/2000/svg">
<path d="M12.502 4.33105C14.7736 4.33105 16.689 5.12555 18.2764 6.72363C19.8649 8.3228 20.6543 10.2406 20.6543 12.5049C20.6543 13.4143 20.5111 14.2816 20.2266 15.1084C19.9426 15.9336 19.516 16.7115 18.9424 17.4424L18.667 17.792L18.9834 18.1055L27.002 26.0576L27.0039 26.0605C27.1309 26.1849 27.1943 26.3293 27.1943 26.5283C27.1943 26.7278 27.1313 26.8775 27.001 27.0078L26.999 27.0098C26.8649 27.1454 26.7135 27.2089 26.5156 27.209C26.3185 27.209 26.1796 27.1458 26.0615 27.0195L26.0498 27.0078L18.0645 19.0293L17.7383 18.7041L17.3867 19.002C16.8517 19.456 16.2343 19.8258 15.5303 20.1094L15.2236 20.2256C14.3958 20.5198 13.5059 20.6689 12.5518 20.6689C10.2408 20.6689 8.30267 19.8727 6.70703 18.2754C5.10946 16.6758 4.31641 14.76 4.31641 12.5C4.31642 10.3813 5.01452 8.56518 6.41992 7.02832L6.70996 6.72461C8.30886 5.1255 10.23 4.33108 12.502 4.33105ZM12.5215 5.60254C10.6021 5.60254 8.95477 6.27848 7.60938 7.62305C6.26549 8.96645 5.5879 10.6016 5.58789 12.5C5.58789 14.3983 6.2652 16.0335 7.6084 17.377C8.95303 18.7217 10.6007 19.3975 12.5215 19.3975C14.4256 19.3974 16.0572 18.7198 17.3867 17.374C18.7142 16.0302 19.3828 14.3963 19.3828 12.5C19.3828 10.6037 18.714 8.96974 17.3857 7.62598C16.0557 6.2804 14.4242 5.60256 12.5215 5.60254Z" fill="#141413" stroke="#141413"/>
</svg>
