<svg width="24" height="24" viewBox="0 0 24 24" fill="none" xmlns="http://www.w3.org/2000/svg">
<path d="M12.0008 15.2019C11.8888 15.2019 11.7832 15.1813 11.684 15.1399C11.5847 15.0986 11.4894 15.0323 11.398 14.9409L6.45402 9.99694C6.28402 9.82694 6.20319 9.62385 6.21152 9.38769C6.21985 9.15152 6.30902 8.94844 6.47902 8.77844C6.64902 8.60844 6.85211 8.52344 7.08827 8.52344C7.32444 8.52344 7.52752 8.60844 7.69752 8.77844L12.0008 13.1067L16.329 8.77844C16.499 8.60844 16.6979 8.5276 16.9258 8.53594C17.1536 8.54427 17.3525 8.63344 17.5225 8.80344C17.6925 8.97344 17.7775 9.17652 17.7775 9.41269C17.7775 9.64885 17.6925 9.85194 17.5225 10.0219L12.6035 14.9409C12.5122 15.0323 12.4169 15.0986 12.3175 15.1399C12.2184 15.1813 12.1128 15.2019 12.0008 15.2019Z" fill="black" fill-opacity="0.6"/>
</svg>
